# xmcd
#
# Track frame offsets:
# 150
# 17733
# 26862
# 39461
# 51139
# 64432
# 80401
# 94039
# 104914
# 117012
#
# Disc length: 1728 seconds
#
# Revision: 2
# Processed by: cddbd v1.4PL0 Copyright (c) Steve Scherf et al.
# Submitted via: Axialis_AX_CDPlayer 2.6
#
DISCID=8506be0a
DTITLE=Statler Brothers, The - Wishes
DYEAR=1900
DGENRE=
TTITLE0=I'll Be Home For Christmas
TTITLE1=Christmas Country Style
TTITLE2=The Carols Those Kids USed To Sing
TTITLE3=Old Toy Trains
TTITLE4=I Believe In Santa Claus
TTITLE5=An Old Fashioned Christmas
TTITLE6=Jingle Bells
TTITLE7=White Christmas
TTITLE8=Whose Birthday Is Christmas
TTITLE9=Away In A Manager
EXTD=
EXTT0=
EXTT1=
EXTT2=
EXTT3=
EXTT4=
EXTT5=
EXTT6=
EXTT7=
EXTT8=
EXTT9=
PLAYORDER=
